<svg width="66" height="66" viewBox="0 0 66 66" fill="none" xmlns="http://www.w3.org/2000/svg">
<path d="M44.55 49.17L49.17 44.55C49.5 44.22 49.665 43.835 49.665 43.395C49.665 42.955 49.5 42.57 49.17 42.24L37.95 30.9375C38.17 30.3325 38.335 29.7275 38.445 29.1225C38.555 28.5175 38.61 27.83 38.61 27.06C38.61 23.925 37.4968 21.2443 35.2704 19.0179C33.044 16.7915 30.3622 15.6772 27.225 15.675C26.29 15.675 25.355 15.7993 24.42 16.0479C23.485 16.2965 22.5775 16.6397 21.6975 17.0775L29.4525 24.8325L24.8325 29.4525L17.0775 21.6975C16.6375 22.5775 16.2943 23.485 16.0479 24.42C15.8015 25.355 15.6772 26.29 15.675 27.225C15.675 30.36 16.7893 33.0418 19.0179 35.2704C21.2465 37.499 23.9272 38.6122 27.06 38.61C27.775 38.61 28.4493 38.555 29.0829 38.445C29.7165 38.335 30.3347 38.17 30.9375 37.95L42.24 49.17C42.57 49.5 42.955 49.665 43.395 49.665C43.835 49.665 44.22 49.5 44.55 49.17ZM33 66C28.435 66 24.145 65.1332 20.13 63.3996C16.115 61.666 12.6225 59.3153 9.6525 56.3475C6.6825 53.3797 4.3318 49.8872 2.6004 45.87C0.869004 41.8528 0.00220418 37.5628 4.17721e-06 33C-0.00219582 28.4372 0.864604 24.1472 2.6004 20.13C4.3362 16.1128 6.6869 12.6203 9.6525 9.6525C12.6181 6.6847 16.1106 4.334 20.13 2.6004C24.1494 0.8668 28.4394 0 33 0C37.5606 0 41.8506 0.8668 45.87 2.6004C49.8894 4.334 53.3819 6.6847 56.3475 9.6525C59.3131 12.6203 61.6649 16.1128 63.4029 20.13C65.1409 24.1472 66.0066 28.4372 66 33C65.9934 37.5628 65.1266 41.8528 63.3996 45.87C61.6726 49.8872 59.3219 53.3797 56.3475 56.3475C53.3731 59.3153 49.8806 61.6671 45.87 63.4029C41.8594 65.1387 37.5694 66.0044 33 66Z" fill="#625452"/>
</svg>
