<svg width="53" height="53" viewBox="0 0 53 53" fill="none" xmlns="http://www.w3.org/2000/svg">
<path d="M9.56944 0C7.03147 0 4.59744 1.00821 2.80283 2.80283C1.00821 4.59744 0 7.03147 0 9.56944V43.4306C0 45.9685 1.00821 48.4026 2.80283 50.1972C4.59744 51.9918 7.03147 53 9.56944 53H43.4306C45.9685 53 48.4026 51.9918 50.1972 50.1972C51.9918 48.4026 53 45.9685 53 43.4306V9.56944C53 7.03147 51.9918 4.59744 50.1972 2.80283C48.4026 1.00821 45.9685 0 43.4306 0H9.56944ZM22.1717 18.4911L14.1628 26.5L22.1717 34.5089C22.3886 34.7111 22.5627 34.9549 22.6834 35.2257C22.8041 35.4966 22.869 35.7891 22.8742 36.0856C22.8794 36.3821 22.8249 36.6766 22.7138 36.9516C22.6027 37.2266 22.4374 37.4764 22.2277 37.6861C22.018 37.8958 21.7682 38.0611 21.4933 38.1721C21.2183 38.2832 20.9238 38.3377 20.6272 38.3325C20.3307 38.3273 20.0383 38.2624 19.7674 38.1417C19.4965 38.021 19.2527 37.847 19.0506 37.63L9.48111 28.0606C9.06756 27.6465 8.83528 27.0852 8.83528 26.5C8.83528 25.9148 9.06756 25.3535 9.48111 24.9394L19.0506 15.37C19.2527 15.153 19.4965 14.979 19.7674 14.8583C20.0383 14.7376 20.3307 14.6727 20.6272 14.6675C20.9238 14.6622 21.2183 14.7168 21.4933 14.8279C21.7682 14.9389 22.018 15.1042 22.2277 15.3139C22.4374 15.5236 22.6027 15.7734 22.7138 16.0484C22.8249 16.3234 22.8794 16.6179 22.8742 16.9144C22.869 17.2109 22.8041 17.5034 22.6834 17.7743C22.5627 18.0451 22.3886 18.2889 22.1717 18.4911ZM33.9494 15.37L43.5189 24.9394C43.9324 25.3535 44.1647 25.9148 44.1647 26.5C44.1647 27.0852 43.9324 27.6465 43.5189 28.0606L33.9494 37.63C33.7473 37.847 33.5035 38.021 33.2326 38.1417C32.9617 38.2624 32.6693 38.3273 32.3728 38.3325C32.0762 38.3377 31.7817 38.2832 31.5067 38.1721C31.2318 38.0611 30.982 37.8958 30.7723 37.6861C30.5626 37.4764 30.3973 37.2266 30.2862 36.9516C30.1751 36.6766 30.1206 36.3821 30.1258 36.0856C30.131 35.7891 30.1959 35.4966 30.3166 35.2257C30.4373 34.9549 30.6114 34.7111 30.8283 34.5089L38.8372 26.5L30.8283 18.4911C30.4383 18.0725 30.2259 17.5188 30.236 16.9467C30.2461 16.3746 30.4778 15.8287 30.8824 15.4241C31.2871 15.0195 31.8329 14.7877 32.405 14.7777C32.9771 14.7676 33.5308 14.9799 33.9494 15.37Z" fill="#625452"/>
</svg>
