<svg width="53" height="53" viewBox="0 0 53 53" fill="none" xmlns="http://www.w3.org/2000/svg">
<path d="M26.5 23.5555C33.8611 23.5555 40.1181 22.4023 45.2708 20.0958C50.4236 17.7893 53 15.0167 53 11.7778C53 8.53888 50.4236 5.7662 45.2708 3.45972C40.1181 1.15324 33.8611 0 26.5 0C19.1389 0 12.8819 1.15324 7.72917 3.45972C2.57639 5.7662 0 8.53888 0 11.7778C0 15.0167 2.57639 17.7893 7.72917 20.0958C12.8819 22.4023 19.1389 23.5555 26.5 23.5555ZM26.5 30.9166C28.512 30.9166 31.0276 30.7076 34.0466 30.2895C37.0656 29.8714 39.9728 29.1971 42.7681 28.2666C45.5633 27.3362 47.9679 26.1221 49.9819 24.6244C51.9959 23.1266 53.002 21.2981 53 19.1389V26.5C53 28.6592 51.994 30.4877 49.9819 31.9855C47.9699 33.4832 45.5653 34.6973 42.7681 35.6277C39.9708 36.5582 37.0637 37.2334 34.0466 37.6535C31.0295 38.0736 28.514 38.2817 26.5 38.2777C24.486 38.2738 21.9714 38.0648 18.9563 37.6506C15.9412 37.2364 13.0331 36.5621 10.2319 35.6277C7.4308 34.6934 5.02617 33.4793 3.01806 31.9855C1.00994 30.4917 0.00392593 28.6632 0 26.5V19.1389C0 21.2981 1.00602 23.1266 3.01806 24.6244C5.03009 26.1221 7.43472 27.3362 10.2319 28.2666C13.0292 29.1971 15.9373 29.8723 18.9563 30.2924C21.9754 30.7125 24.4899 30.9206 26.5 30.9166ZM26.5 45.6388C28.512 45.6388 31.0276 45.4298 34.0466 45.0117C37.0656 44.5936 39.9728 43.9193 42.7681 42.9888C45.5633 42.0584 47.9679 40.8443 49.9819 39.3466C51.9959 37.8488 53.002 36.0203 53 33.8611V41.2222C53 43.3814 51.994 45.2099 49.9819 46.7077C47.9699 48.2054 45.5653 49.4195 42.7681 50.3499C39.9708 51.2804 37.0637 51.9556 34.0466 52.3757C31.0295 52.7958 28.514 53.0039 26.5 52.9999C24.486 52.996 21.9714 52.787 18.9563 52.3728C15.9412 51.9586 13.0331 51.2843 10.2319 50.3499C7.4308 49.4156 5.02617 48.2015 3.01806 46.7077C1.00994 45.2139 0.00392593 43.3854 0 41.2222V33.8611C0 36.0203 1.00602 37.8488 3.01806 39.3466C5.03009 40.8443 7.43472 42.0584 10.2319 42.9888C13.0292 43.9193 15.9373 44.5945 18.9563 45.0146C21.9754 45.4347 24.4899 45.6428 26.5 45.6388Z" fill="#625452"/>
</svg>
