<svg width="76" height="76" viewBox="0 0 76 76" fill="none" xmlns="http://www.w3.org/2000/svg">
<path d="M0 16C0 7.16344 7.16344 0 16 0H60C68.8366 0 76 7.16344 76 16V60C76 68.8366 68.8366 76 60 76H16C7.16344 76 0 68.8366 0 60V16Z" fill="#625452"/>
<path d="M22.3955 27H26.7755V30H18.4755V15.9H22.3955V27Z" fill="white"/>
<path d="M30.2797 17.74C29.5864 17.74 29.0264 17.5533 28.5997 17.18C28.1864 16.7933 27.9797 16.3133 27.9797 15.74C27.9797 15.1533 28.1864 14.6667 28.5997 14.28C29.0264 13.8933 29.5864 13.7 30.2797 13.7C30.9597 13.7 31.5064 13.8933 31.9197 14.28C32.3464 14.6667 32.5597 15.1533 32.5597 15.74C32.5597 16.3133 32.3464 16.7933 31.9197 17.18C31.5064 17.5533 30.9597 17.74 30.2797 17.74ZM32.2197 18.78V30H28.2997V18.78H32.2197Z" fill="white"/>
<path d="M39.832 26.3L41.932 18.78H46.112L42.252 30H37.372L33.512 18.78H37.692L39.832 26.3Z" fill="white"/>
<path d="M58.1603 24.26C58.1603 24.5667 58.1403 24.8733 58.1003 25.18H50.6803C50.7203 25.7933 50.887 26.2533 51.1803 26.56C51.487 26.8533 51.8736 27 52.3403 27C52.9936 27 53.4603 26.7067 53.7403 26.12H57.9203C57.747 26.8933 57.407 27.5867 56.9003 28.2C56.407 28.8 55.7803 29.2733 55.0203 29.62C54.2603 29.9667 53.4203 30.14 52.5003 30.14C51.3936 30.14 50.407 29.9067 49.5403 29.44C48.687 28.9733 48.0136 28.3067 47.5203 27.44C47.0403 26.5733 46.8003 25.5533 46.8003 24.38C46.8003 23.2067 47.0403 22.1933 47.5203 21.34C48.0003 20.4733 48.667 19.8067 49.5203 19.34C50.387 18.8733 51.3803 18.64 52.5003 18.64C53.607 18.64 54.587 18.8667 55.4403 19.32C56.2936 19.7733 56.9603 20.4267 57.4403 21.28C57.9203 22.12 58.1603 23.1133 58.1603 24.26ZM54.1603 23.28C54.1603 22.8 54.0003 22.4267 53.6803 22.16C53.3603 21.88 52.9603 21.74 52.4803 21.74C52.0003 21.74 51.607 21.8733 51.3003 22.14C50.9936 22.3933 50.7936 22.7733 50.7003 23.28H54.1603Z" fill="white"/>
<path d="M14.1531 45.9C15.6331 45.9 16.9265 46.2 18.0331 46.8C19.1531 47.3867 20.0131 48.2133 20.6131 49.28C21.2131 50.3467 21.5131 51.5667 21.5131 52.94C21.5131 54.3 21.2065 55.5133 20.5931 56.58C19.9931 57.6467 19.1331 58.4867 18.0131 59.1C16.9065 59.7 15.6198 60 14.1531 60H8.57312V45.9H14.1531ZM13.8531 56.54C14.9998 56.54 15.8998 56.2267 16.5531 55.6C17.2065 54.9733 17.5331 54.0867 17.5331 52.94C17.5331 51.78 17.2065 50.8867 16.5531 50.26C15.8998 49.62 14.9998 49.3 13.8531 49.3H12.4931V56.54H13.8531Z" fill="white"/>
<path d="M34.0002 54.26C34.0002 54.5667 33.9802 54.8733 33.9402 55.18H26.5202C26.5602 55.7933 26.7268 56.2533 27.0202 56.56C27.3268 56.8533 27.7135 57 28.1802 57C28.8335 57 29.3002 56.7067 29.5802 56.12H33.7602C33.5868 56.8933 33.2468 57.5867 32.7402 58.2C32.2468 58.8 31.6202 59.2733 30.8602 59.62C30.1002 59.9667 29.2602 60.14 28.3402 60.14C27.2335 60.14 26.2468 59.9067 25.3802 59.44C24.5268 58.9733 23.8535 58.3067 23.3602 57.44C22.8802 56.5733 22.6402 55.5533 22.6402 54.38C22.6402 53.2067 22.8802 52.1933 23.3602 51.34C23.8402 50.4733 24.5068 49.8067 25.3602 49.34C26.2268 48.8733 27.2202 48.64 28.3402 48.64C29.4468 48.64 30.4268 48.8667 31.2802 49.32C32.1335 49.7733 32.8002 50.4267 33.2802 51.28C33.7602 52.12 34.0002 53.1133 34.0002 54.26ZM30.0002 53.28C30.0002 52.8 29.8402 52.4267 29.5202 52.16C29.2002 51.88 28.8002 51.74 28.3202 51.74C27.8402 51.74 27.4468 51.8733 27.1402 52.14C26.8335 52.3933 26.6335 52.7733 26.5402 53.28H30.0002Z" fill="white"/>
<path d="M50.2644 48.68C51.6777 48.68 52.7844 49.1067 53.5844 49.96C54.3977 50.8133 54.8044 51.98 54.8044 53.46V60H50.8844V53.98C50.8844 53.38 50.7177 52.9133 50.3844 52.58C50.051 52.2467 49.5977 52.08 49.0244 52.08C48.451 52.08 47.9977 52.2467 47.6644 52.58C47.331 52.9133 47.1644 53.38 47.1644 53.98V60H43.2444V53.98C43.2444 53.38 43.0777 52.9133 42.7444 52.58C42.4244 52.2467 41.9777 52.08 41.4044 52.08C40.8177 52.08 40.3577 52.2467 40.0244 52.58C39.691 52.9133 39.5244 53.38 39.5244 53.98V60H35.6044V48.78H39.5244V50.26C39.871 49.78 40.3177 49.4 40.8644 49.12C41.4244 48.8267 42.0644 48.68 42.7844 48.68C43.611 48.68 44.3444 48.86 44.9844 49.22C45.6377 49.58 46.151 50.0867 46.5244 50.74C46.9244 50.1267 47.451 49.6333 48.1044 49.26C48.7577 48.8733 49.4777 48.68 50.2644 48.68Z" fill="white"/>
<path d="M62.172 60.14C61.052 60.14 60.0454 59.9067 59.152 59.44C58.272 58.9733 57.5787 58.3067 57.072 57.44C56.5654 56.5733 56.312 55.5533 56.312 54.38C56.312 53.22 56.5654 52.2067 57.072 51.34C57.592 50.4733 58.292 49.8067 59.172 49.34C60.0654 48.8733 61.072 48.64 62.192 48.64C63.312 48.64 64.312 48.8733 65.192 49.34C66.0854 49.8067 66.7854 50.4733 67.292 51.34C67.812 52.2067 68.072 53.22 68.072 54.38C68.072 55.54 67.812 56.56 67.292 57.44C66.7854 58.3067 66.0854 58.9733 65.192 59.44C64.2987 59.9067 63.292 60.14 62.172 60.14ZM62.172 56.74C62.7187 56.74 63.172 56.54 63.532 56.14C63.9054 55.7267 64.092 55.14 64.092 54.38C64.092 53.62 63.9054 53.04 63.532 52.64C63.172 52.24 62.7254 52.04 62.192 52.04C61.6587 52.04 61.212 52.24 60.852 52.64C60.492 53.04 60.312 53.62 60.312 54.38C60.312 55.1533 60.4854 55.74 60.832 56.14C61.1787 56.54 61.6254 56.74 62.172 56.74Z" fill="white"/>
</svg>
