<svg width="53" height="53" viewBox="0 0 53 53" fill="none" xmlns="http://www.w3.org/2000/svg">
<path fill-rule="evenodd" clip-rule="evenodd" d="M5.67857 0H17.0357C18.5418 0 19.9861 0.598276 21.0511 1.66322C22.116 2.72815 22.7143 4.17252 22.7143 5.67857V12.7768H0V5.67857C0 4.17252 0.598276 2.72815 1.66322 1.66322C2.72815 0.598276 4.17252 0 5.67857 0ZM0 17.5089V29.8125H22.7143V17.5089H0ZM0 41.6429V34.5446H22.7143V41.6429C22.7143 44.655 21.5177 47.5437 19.3879 49.6736C17.258 51.8035 14.3692 53 11.3571 53C8.34504 53 5.45631 51.8035 3.32643 49.6736C1.19655 47.5437 0 44.655 0 41.6429ZM27.4464 41.6126L46.7119 22.3509C47.2396 21.8235 47.6582 21.1973 47.9438 20.5082C48.2294 19.819 48.3764 19.0802 48.3764 18.3342C48.3764 17.5882 48.2294 16.8495 47.9438 16.1603C47.6582 15.4711 47.2396 14.8449 46.7119 14.3176L38.6786 6.28807C37.6139 5.22466 36.1706 4.62735 34.6658 4.62735C33.161 4.62735 31.7177 5.22466 30.6529 6.28807L27.4464 9.49079V41.6126ZM22.7521 53H47.3214C48.8275 53 50.2718 52.4017 51.3368 51.3368C52.4017 50.2718 53 48.8275 53 47.3214V35.9643C53 34.4582 52.4017 33.0139 51.3368 31.9489C50.2718 30.884 48.8275 30.2857 47.3214 30.2857H45.4664L22.7521 53Z" fill="#625452"/>
</svg>
