<svg width="81" height="68" viewBox="0 0 81 68" fill="none" xmlns="http://www.w3.org/2000/svg">
<path d="M73.2488 49.5874V26.596L42.0502 43.6447C40.8876 44.2942 39.6603 44.6189 38.3684 44.6189C37.0766 44.6189 35.8493 44.2942 34.6866 43.6447L1.93783 25.7192C1.22731 25.3295 0.726062 24.8424 0.434101 24.2579C0.142139 23.6734 -0.00254973 23.0239 3.39965e-05 22.3095C0.00261773 21.5951 0.148599 20.9456 0.437977 20.3611C0.727355 19.7765 1.22731 19.2894 1.93783 18.8997L34.6866 0.974271C35.268 0.649534 35.8661 0.405332 36.481 0.241664C37.0959 0.0779969 37.7251 -0.00253701 38.3684 6.08887e-05C39.0118 0.00265878 39.6422 0.0844923 40.2597 0.245562C40.8772 0.406631 41.4741 0.649534 42.0502 0.974271L78.9653 21.2378C79.6112 21.5626 80.1125 22.0341 80.469 22.6524C80.8256 23.2707 81.0026 23.9358 81 24.6476V49.5874C81 50.6915 80.6279 51.6176 79.8838 52.3658C79.1397 53.114 78.2199 53.4868 77.1244 53.4842C76.0289 53.4816 75.1091 53.1075 74.365 52.3619C73.6208 51.6163 73.2488 50.6915 73.2488 49.5874ZM34.6866 67.0257L15.3086 56.5043C14.0168 55.7898 13.0156 54.8156 12.305 53.5816C11.5945 52.3476 11.2393 51.0162 11.2393 49.5874V34.7794L34.6866 47.5415C35.8493 48.191 37.0766 48.5157 38.3684 48.5157C39.6603 48.5157 40.8876 48.191 42.0502 47.5415L65.4976 34.7794V49.5874C65.4976 51.0162 65.1423 52.3476 64.4318 53.5816C63.7213 54.8156 62.7201 55.7898 61.4282 56.5043L42.0502 67.0257C41.4689 67.3505 40.8721 67.5947 40.2597 67.7583C39.6474 67.922 39.0169 68.0025 38.3684 67.9999C37.7199 67.9973 37.0895 67.9168 36.4771 67.7583C35.8648 67.5999 35.268 67.3557 34.6866 67.0257Z" fill="#625452"/>
</svg>
