<svg width="59" height="65" viewBox="0 0 59 65" fill="none" xmlns="http://www.w3.org/2000/svg">
<path d="M35.3889 8.9H41.2778C45.4412 8.9 47.5229 8.9 48.8156 10.198C50.1111 11.4901 50.1111 13.5757 50.1111 17.75M23.6111 8.9H17.7222C13.5588 8.9 11.4771 8.9 10.1844 10.198C8.88889 11.4901 8.88889 13.5757 8.88889 17.75M23.6111 56.1H17.7222C13.5588 56.1 11.4771 56.1 10.1844 54.802C8.88889 53.5099 8.88889 51.4242 8.88889 47.25M35.3889 56.1H41.2778C45.4412 56.1 47.5229 56.1 48.8156 54.802C50.1111 53.5069 50.1111 51.4213 50.1111 47.25M23.6111 32.5H35.3889M32.4444 3H26.5556C25.7746 3 25.0257 3.3108 24.4735 3.86403C23.9213 4.41727 23.6111 5.16761 23.6111 5.95V11.85C23.6111 12.6324 23.9213 13.3827 24.4735 13.936C25.0257 14.4892 25.7746 14.8 26.5556 14.8H32.4444C33.2254 14.8 33.9743 14.4892 34.5265 13.936C35.0787 13.3827 35.3889 12.6324 35.3889 11.85V5.95C35.3889 5.16761 35.0787 4.41727 34.5265 3.86403C33.9743 3.3108 33.2254 3 32.4444 3ZM32.4444 50.2H26.5556C25.7746 50.2 25.0257 50.5108 24.4735 51.064C23.9213 51.6173 23.6111 52.3676 23.6111 53.15V59.05C23.6111 59.8324 23.9213 60.5827 24.4735 61.136C25.0257 61.6892 25.7746 62 26.5556 62H32.4444C33.2254 62 33.9743 61.6892 34.5265 61.136C35.0787 60.5827 35.3889 59.8324 35.3889 59.05V53.15C35.3889 52.3676 35.0787 51.6173 34.5265 51.064C33.9743 50.5108 33.2254 50.2 32.4444 50.2ZM56 35.45V29.55C56 28.7676 55.6898 28.0173 55.1376 27.464C54.5854 26.9108 53.8365 26.6 53.0556 26.6H47.1667C46.3858 26.6 45.6368 26.9108 45.0846 27.464C44.5324 28.0173 44.2222 28.7676 44.2222 29.55V35.45C44.2222 36.2324 44.5324 36.9827 45.0846 37.536C45.6368 38.0892 46.3858 38.4 47.1667 38.4H53.0556C53.8365 38.4 54.5854 38.0892 55.1376 37.536C55.6898 36.9827 56 36.2324 56 35.45ZM14.7778 35.45V29.55C14.7778 28.7676 14.4676 28.0173 13.9154 27.464C13.3632 26.9108 12.6142 26.6 11.8333 26.6H5.94444C5.16353 26.6 4.4146 26.9108 3.86241 27.464C3.31022 28.0173 3 28.7676 3 29.55V35.45C3 36.2324 3.31022 36.9827 3.86241 37.536C4.4146 38.0892 5.16353 38.4 5.94444 38.4H11.8333C12.6142 38.4 13.3632 38.0892 13.9154 37.536C14.4676 36.9827 14.7778 36.2324 14.7778 35.45Z" stroke="#625452" stroke-width="4.5" stroke-linecap="round" stroke-linejoin="round"/>
</svg>
