<svg width="76" height="76" viewBox="0 0 76 76" fill="none" xmlns="http://www.w3.org/2000/svg">
<path d="M20.4929 51.4866C19.492 51.4187 18.3554 51.3509 17.0661 51.2661C16.5062 51.9616 15.9464 52.6911 15.9464 53.5563C15.9464 56.6946 27.058 56.6946 27.058 53.3018C27.058 51.8938 25.8027 51.8259 20.4759 51.4866H20.4929ZM21.8161 31.4857C16.3366 31.4857 16.0991 39.0348 21.6973 39.0348C27.2107 39.0348 27.075 31.4857 21.8161 31.4857ZM65.1429 0H10.8571C4.86875 0 0 4.86875 0 10.8571V65.1429C0 71.1312 4.86875 76 10.8571 76H65.1429C71.1312 76 76 71.1312 76 65.1429V10.8571C76 4.86875 71.1312 0 65.1429 0ZM41.3759 23.7839C38.9161 23.7839 37.4911 22.3589 37.4911 19.8991C37.4911 17.4393 38.9161 16.1161 41.3759 16.1161C43.8696 16.1161 45.2946 17.4393 45.2946 19.8991C45.2946 22.3589 43.8696 23.7839 41.3759 23.7839ZM25.3786 27.6518H33.7759V31.3161L29.8062 31.6214C30.5866 32.6054 31.4009 33.9964 31.4009 35.9812C31.4009 44.2429 21.6973 43.9884 18.8134 43.1741L17.3884 45.4473C18.2366 45.4982 19.0509 45.5491 19.8143 45.583C29.3652 46.1259 33.4705 46.3634 33.4705 52.1143C33.4705 57.0679 29.1107 59.867 21.6125 59.867C13.8089 59.867 10.8402 57.8991 10.8402 54.4893C10.8402 52.5554 11.7054 51.5205 13.2152 50.0955C11.7902 49.5018 11.3152 48.4161 11.3152 47.2455C11.3152 45.617 12.5705 44.4804 15.217 42.0545L15.2509 42.0205C13.1473 40.9857 11.5527 38.7464 11.5527 35.5571C11.5527 26.8036 21.1545 26.5152 25.3955 27.6179L25.3786 27.6518ZM45.8884 45.9902L48.0937 46.2955V49.7054H35.8116V46.2955C36.2696 46.2277 36.6598 46.1768 36.9821 46.1429C38.6616 45.9393 38.6955 45.9223 38.6955 45.125V32.4527C38.6955 31.7062 38.5429 31.6554 36.9821 31.1295C36.6598 31.0107 36.2696 30.892 35.8116 30.7223L36.2866 27.2277H45.2098V45.125C45.2098 45.8205 45.2437 45.9054 45.9054 45.9902H45.8884ZM63.9723 44.2259L65.1429 48.0089C63.2937 48.925 60.5795 49.7393 58.1196 49.7393C52.9964 49.7393 51.0455 47.6696 51.0455 42.8009V31.5027C51.0455 31.367 51.0455 31.2652 51.0116 31.1973C50.8759 30.9937 50.2991 31.0786 47.6866 31.0786V27.2446C51.4696 26.8205 52.9795 24.9205 53.4545 20.2214H57.5598C57.5598 25.8705 57.458 26.6679 57.6786 26.7696C57.7295 26.7866 57.7973 26.7696 57.8991 26.7696H63.9723V31.0786H57.5598V41.5286C57.5259 42.5973 57.4071 46.6857 63.9893 44.2259H63.9723Z" fill="#625452"/>
</svg>
