<svg width="58" height="58" viewBox="0 0 58 58" fill="none" xmlns="http://www.w3.org/2000/svg">
<path d="M31.9812 0C35.2436 0.00869979 36.8994 0.0260994 38.329 0.0666984L38.8916 0.0869978C39.5412 0.110197 40.182 0.139196 40.9563 0.173996C44.0417 0.318992 46.147 0.806181 47.9942 1.52246C49.9081 2.25905 51.5205 3.25662 53.1328 4.86608C54.6079 6.31527 55.749 8.06897 56.4763 10.0048C57.1926 11.852 57.6797 13.9574 57.8247 17.0458C57.8595 17.8172 57.8885 18.4581 57.9117 19.1105L57.9291 19.6731C57.9726 21.0999 57.99 22.7557 57.9958 26.0182L57.9987 28.1815V31.9804C58.0058 34.0956 57.9835 36.2109 57.932 38.3255L57.9146 38.8881C57.8914 39.5405 57.8624 40.1814 57.8276 40.9528C57.6826 44.0412 57.1897 46.1437 56.4763 47.9938C55.749 49.9296 54.6079 51.6833 53.1328 53.1325C51.6836 54.6077 49.93 55.7488 47.9942 56.4761C46.147 57.1924 44.0417 57.6796 40.9563 57.8246L38.8916 57.9116L38.329 57.929C36.8994 57.9696 35.2436 57.9899 31.9812 57.9957L29.8179 57.9986H26.022C23.9059 58.0061 21.7898 57.9838 19.6743 57.9319L19.1117 57.9145C18.4233 57.8884 17.735 57.8585 17.047 57.8246C13.9615 57.6796 11.8563 57.1924 10.0061 56.4761C8.07145 55.7484 6.31881 54.6073 4.8705 53.1325C3.39432 51.6836 2.25225 49.9299 1.52407 47.9938C0.807809 46.1466 0.320633 44.0412 0.17564 40.9528L0.088645 38.8881L0.074146 38.3255C0.0206903 36.2109 -0.00347778 34.0957 0.00164943 31.9804V26.0182C-0.00637706 23.903 0.0148908 21.7877 0.0654464 19.6731L0.0857453 19.1105C0.108944 18.4581 0.137943 17.8172 0.172741 17.0458C0.317734 13.9574 0.804909 11.8549 1.52117 10.0048C2.25105 8.06818 3.39513 6.31441 4.8734 4.86608C6.32088 3.39161 8.07249 2.25056 10.0061 1.52246C11.8563 0.806181 13.9586 0.318992 17.047 0.173996C17.8184 0.139196 18.4621 0.110197 19.1117 0.0869978L19.6743 0.0695981C21.7888 0.0180744 23.904 -0.00416052 26.0191 0.00289972L31.9812 0ZM29.0002 14.4996C25.1547 14.4996 21.4668 16.0273 18.7477 18.7465C16.0285 21.4657 14.5009 25.1538 14.5009 28.9993C14.5009 32.8448 16.0285 36.5329 18.7477 39.2521C21.4668 41.9713 25.1547 43.4989 29.0002 43.4989C32.8456 43.4989 36.5336 41.9713 39.2527 39.2521C41.9719 36.5329 43.4995 32.8448 43.4995 28.9993C43.4995 25.1538 41.9719 21.4657 39.2527 18.7465C36.5336 16.0273 32.8456 14.4996 29.0002 14.4996ZM29.0002 20.2995C30.1426 20.2993 31.2739 20.5242 32.3295 20.9612C33.385 21.3982 34.3442 22.0389 35.1521 22.8466C35.9601 23.6543 36.6011 24.6133 37.0384 25.6687C37.4758 26.7241 37.701 27.8554 37.7012 28.9978C37.7014 30.1403 37.4766 31.2716 37.0395 32.3272C36.6025 33.3828 35.9619 34.342 35.1542 35.15C34.3465 35.9579 33.3876 36.5989 32.3322 37.0363C31.2767 37.4737 30.1455 37.6989 29.0031 37.6991C26.6958 37.6991 24.4831 36.7825 22.8516 35.151C21.2201 33.5195 20.3035 31.3066 20.3035 28.9993C20.3035 26.692 21.2201 24.4791 22.8516 22.8476C24.4831 21.2161 26.6958 20.2995 29.0031 20.2995M44.2273 10.1498C43.266 10.1498 42.344 10.5317 41.6642 11.2115C40.9844 11.8913 40.6025 12.8133 40.6025 13.7747C40.6025 14.7361 40.9844 15.6581 41.6642 16.3379C42.344 17.0177 43.266 17.3996 44.2273 17.3996C45.1887 17.3996 46.1107 17.0177 46.7905 16.3379C47.4702 15.6581 47.8521 14.7361 47.8521 13.7747C47.8521 12.8133 47.4702 11.8913 46.7905 11.2115C46.1107 10.5317 45.1887 10.1498 44.2273 10.1498Z" fill="#C4BBB6"/>
</svg>
