<svg width="58" height="58" viewBox="0 0 58 58" fill="none" xmlns="http://www.w3.org/2000/svg">
<path d="M53.7113 0.000405504H4.28873C3.73318 -0.00726379 3.18154 0.0939219 2.66533 0.298184C2.14912 0.502447 1.67845 0.805784 1.28019 1.19087C0.881937 1.57596 0.5639 2.03526 0.344242 2.54254C0.124584 3.04981 0.00761 3.59513 0 4.14735V53.8526C0.00761 54.4049 0.124584 54.9502 0.344242 55.4575C0.5639 55.9647 0.881937 56.424 1.28019 56.8091C1.67845 57.1942 2.14912 57.4975 2.66533 57.7018C3.18154 57.9061 3.73318 58.0073 4.28873 57.9996H53.7113C54.2668 58.0073 54.8185 57.9061 55.3347 57.7018C55.8509 57.4975 56.3215 57.1942 56.7198 56.8091C57.1181 56.424 57.4361 55.9647 57.6558 55.4575C57.8754 54.9502 57.9924 54.4049 58 53.8526V4.14735C57.9924 3.59513 57.8754 3.04981 57.6558 2.54254C57.4361 2.03526 57.1181 1.57596 56.7198 1.19087C56.3215 0.805784 55.8509 0.502447 55.3347 0.298184C54.8185 0.0939219 54.2668 -0.00726379 53.7113 0.000405504ZM17.5926 48.5457H8.84004V22.4461H17.5926V48.5457ZM13.2163 18.7921C12.0092 18.7921 10.8516 18.3155 9.99804 17.4671C9.1445 16.6187 8.66499 15.468 8.66499 14.2682C8.66499 13.0684 9.1445 11.9177 9.99804 11.0693C10.8516 10.2209 12.0092 9.74427 13.2163 9.74427C13.8573 9.67202 14.5063 9.73515 15.1211 9.92953C15.7358 10.1239 16.3023 10.4452 16.7834 10.8722C17.2646 11.2993 17.6495 11.8226 17.9131 12.4078C18.1767 12.9931 18.3129 13.627 18.3129 14.2682C18.3129 14.9094 18.1767 15.5434 17.9131 16.1286C17.6495 16.7138 17.2646 17.2371 16.7834 17.6642C16.3023 18.0913 15.7358 18.4125 15.1211 18.6069C14.5063 18.8013 13.8573 18.8644 13.2163 18.7921ZM49.16 48.5457H40.4074V34.5389C40.4074 31.03 39.1529 28.739 35.9728 28.739C34.9887 28.7462 34.0303 29.053 33.227 29.6182C32.4236 30.1834 31.8139 30.9797 31.4799 31.9C31.2516 32.5816 31.1526 33.2994 31.1881 34.0169V48.5167H22.4356V22.4171H31.1881V26.1C31.9832 24.7287 33.1397 23.5989 34.5329 22.8324C35.9261 22.0659 37.5033 21.6917 39.0946 21.7501C44.9296 21.7501 49.16 25.4911 49.16 33.5239V48.5457Z" fill="#C4BBB6"/>
</svg>
