<svg width="58" height="58" viewBox="0 0 58 58" fill="none" xmlns="http://www.w3.org/2000/svg">
<path d="M29 0C21.3087 0 13.9325 3.05535 8.4939 8.4939C3.05535 13.9325 0 21.3087 0 29C0 36.6913 3.05535 44.0675 8.4939 49.5061C13.9325 54.9447 21.3087 58 29 58C36.6913 58 44.0675 54.9447 49.5061 49.5061C54.9447 44.0675 58 36.6913 58 29C58 21.3087 54.9447 13.9325 49.5061 8.4939C44.0675 3.05535 36.6913 0 29 0ZM14.5 14.5H43.5C44.022 14.5024 44.5162 14.6087 44.9826 14.819L29 33.4624L13.0174 14.819C13.4836 14.6093 13.9888 14.5006 14.5 14.5ZM10.875 39.875V18.125L10.8823 17.8966L21.5108 30.2977L10.9982 40.8103C10.9166 40.5052 10.8752 40.1908 10.875 39.875ZM43.5 43.5H14.5C14.1786 43.5 13.8668 43.4589 13.5648 43.3767L23.8815 33.06L29.0036 39.034L34.1257 33.06L44.4425 43.3767C44.1374 43.4584 43.823 43.4998 43.5072 43.5H43.5ZM47.125 39.875C47.125 40.1964 47.0839 40.5082 47.0017 40.8103L36.4892 30.2977L47.1178 17.8966L47.125 18.125V39.875Z" fill="#C4BBB6"/>
</svg>
