<svg width="76" height="76" viewBox="0 0 76 76" fill="none" xmlns="http://www.w3.org/2000/svg">
<path d="M69.199 13.5714H65.1581L65.1473 13.5759L65.1429 13.5867V65.1429C65.1429 66.5826 65.7148 67.9634 66.7328 68.9814C67.7509 69.9995 69.1317 70.5714 70.5714 70.5714C72.0112 70.5714 73.3919 69.9995 74.41 68.9814C75.4281 67.9634 76 66.5826 76 65.1429V20.3724C76 18.5687 75.2835 16.8388 74.008 15.5634C72.7326 14.288 71.0027 13.5714 69.199 13.5714Z" fill="#625452"/>
<path d="M59.7143 65.1429V6.78571C59.7143 5.8946 59.5388 5.01221 59.1977 4.18893C58.8567 3.36565 58.3569 2.6176 57.7268 1.98749C57.0967 1.35738 56.3486 0.857546 55.5254 0.516532C54.7021 0.175518 53.8197 0 52.9286 0H6.78571C4.98603 0 3.26006 0.714921 1.98749 1.98749C0.714921 3.26006 0 4.98603 0 6.78571V66.5C0 69.0196 1.00089 71.4359 2.78249 73.2175C4.56408 74.9991 6.98044 76 9.5 76H67.6621C67.6877 76.0002 67.7132 75.9953 67.737 75.9856C67.7607 75.9759 67.7823 75.9615 67.8005 75.9434C67.8187 75.9252 67.833 75.9036 67.8428 75.8798C67.8525 75.8561 67.8574 75.8306 67.8571 75.8049C67.857 75.7623 67.8429 75.7208 67.8168 75.6871C67.7907 75.6533 67.7542 75.6292 67.7129 75.6183C65.4169 74.9885 63.3909 73.6226 61.946 71.7302C60.5011 69.8379 59.7171 67.5237 59.7143 65.1429ZM10.8571 16.2857C10.8571 15.5658 11.1431 14.8755 11.6521 14.3664C12.1612 13.8574 12.8516 13.5714 13.5714 13.5714H24.4286C25.1484 13.5714 25.8388 13.8574 26.3479 14.3664C26.8569 14.8755 27.1429 15.5658 27.1429 16.2857V27.1429C27.1429 27.8627 26.8569 28.5531 26.3479 29.0621C25.8388 29.5712 25.1484 29.8571 24.4286 29.8571H13.5714C12.8516 29.8571 12.1612 29.5712 11.6521 29.0621C11.1431 28.5531 10.8571 27.8627 10.8571 27.1429V16.2857ZM46.1429 62.4286H13.6478C12.1871 62.4286 10.9335 61.3055 10.8605 59.8449C10.8429 59.4779 10.8999 59.1111 11.0281 58.7668C11.1564 58.4225 11.3532 58.1078 11.6067 57.8418C11.8601 57.5758 12.165 57.3641 12.5027 57.2194C12.8404 57.0747 13.204 57 13.5714 57H46.0665C47.5271 57 48.7808 58.123 48.8538 59.5837C48.8714 59.9507 48.8144 60.3174 48.6862 60.6617C48.5579 61.006 48.3611 61.3207 48.1076 61.5867C47.8542 61.8527 47.5493 62.0645 47.2116 62.2092C46.8739 62.3539 46.5103 62.4285 46.1429 62.4286ZM46.1429 51.5714H13.6478C12.1871 51.5714 10.9335 50.4484 10.8605 48.9878C10.8429 48.6208 10.8999 48.254 11.0281 47.9097C11.1564 47.5654 11.3532 47.2507 11.6067 46.9847C11.8601 46.7187 12.165 46.5069 12.5027 46.3622C12.8404 46.2175 13.204 46.1429 13.5714 46.1429H46.0665C47.5271 46.1429 48.7808 47.2659 48.8538 48.7265C48.8714 49.0935 48.8144 49.4603 48.6862 49.8046C48.5579 50.1489 48.3611 50.4636 48.1076 50.7296C47.8542 50.9956 47.5493 51.2074 47.2116 51.3521C46.8739 51.4968 46.5103 51.5714 46.1429 51.5714ZM46.1429 40.7143H13.6478C12.1871 40.7143 10.9335 39.5912 10.8605 38.1306C10.8429 37.7636 10.8999 37.3969 11.0281 37.0525C11.1564 36.7082 11.3532 36.3935 11.6067 36.1276C11.8601 35.8616 12.165 35.6498 12.5027 35.5051C12.8404 35.3604 13.204 35.2857 13.5714 35.2857H46.0665C47.5271 35.2857 48.7808 36.4087 48.8538 37.8694C48.8714 38.2364 48.8144 38.6031 48.6862 38.9474C48.5579 39.2918 48.3611 39.6065 48.1076 39.8724C47.8542 40.1384 47.5493 40.3502 47.2116 40.4949C46.8739 40.6396 46.5103 40.7143 46.1429 40.7143ZM46.1429 29.8571H35.3621C33.9014 29.8571 32.6478 28.7341 32.5748 27.2735C32.5571 26.9065 32.6142 26.5397 32.7424 26.1954C32.8707 25.8511 33.0675 25.5364 33.3209 25.2704C33.5744 25.0044 33.8792 24.7926 34.217 24.6479C34.5547 24.5032 34.9183 24.4286 35.2857 24.4286H46.0665C47.5271 24.4286 48.7808 25.5516 48.8538 27.0122C48.8714 27.3792 48.8144 27.746 48.6862 28.0903C48.5579 28.4346 48.3611 28.7493 48.1076 29.0153C47.8542 29.2813 47.5493 29.4931 47.2116 29.6378C46.8739 29.7825 46.5103 29.8571 46.1429 29.8571ZM46.1429 19H35.3621C33.9014 19 32.6478 17.877 32.5748 16.4163C32.5571 16.0493 32.6142 15.6826 32.7424 15.3383C32.8707 14.994 33.0675 14.6793 33.3209 14.4133C33.5744 14.1473 33.8792 13.9355 34.217 13.7908C34.5547 13.6461 34.9183 13.5715 35.2857 13.5714H46.0665C47.5271 13.5714 48.7808 14.6945 48.8538 16.1551C48.8714 16.5221 48.8144 16.8889 48.6862 17.2332C48.5579 17.5775 48.3611 17.8922 48.1076 18.1582C47.8542 18.4242 47.5493 18.6359 47.2116 18.7806C46.8739 18.9253 46.5103 19 46.1429 19Z" fill="#625452"/>
</svg>
