<svg width="58" height="58" viewBox="0 0 58 58" fill="none" xmlns="http://www.w3.org/2000/svg">
<path d="M29 0C12.9837 0 0 12.9837 0 29C0 45.0163 12.9837 58 29 58C45.0163 58 58 45.0163 58 29C58 12.9837 45.0163 0 29 0ZM18.5781 11.5193C19.1756 11.484 19.7157 11.8412 20.1251 12.4751L24.09 19.9941C24.5074 20.8851 24.2702 21.8391 23.6475 22.4757L21.8314 24.2917C21.7194 24.4453 21.6456 24.6183 21.6438 24.8085C22.3402 27.5043 24.4528 29.991 26.3167 31.701C28.1806 33.411 30.1838 35.7263 32.7843 36.2747C33.1057 36.3644 33.4995 36.3965 33.7295 36.1828L35.8394 34.034C36.5676 33.4819 37.6212 33.2144 38.3988 33.6658H38.4342L45.5885 37.8891C46.6387 38.5473 46.7475 39.8197 45.9956 40.5937L41.068 45.4824C40.3403 46.2287 39.3735 46.4796 38.4343 46.4807C34.2801 46.3563 30.355 44.3174 27.131 42.2221C21.8389 38.3722 16.9847 33.5972 13.9372 27.8283C12.7684 25.4092 11.3954 22.3226 11.5264 19.6225C11.5381 18.6067 11.8129 17.6116 12.5282 16.9569L17.456 12.0292C17.8398 11.7025 18.2196 11.5405 18.5781 11.5193Z" fill="#C4BBB6"/>
</svg>
