<svg width="97" height="97" viewBox="0 0 97 97" fill="none" xmlns="http://www.w3.org/2000/svg">
<path d="M28.7969 42.4375C27.591 42.4375 26.4345 42.9165 25.5817 43.7692C24.729 44.622 24.25 45.7785 24.25 46.9844C24.25 48.1903 24.729 49.3468 25.5817 50.1995C26.4345 51.0522 27.591 51.5312 28.7969 51.5312H56.0781C57.284 51.5312 58.4405 51.0522 59.2932 50.1995C60.146 49.3468 60.625 48.1903 60.625 46.9844C60.625 45.7785 60.146 44.622 59.2932 43.7692C58.4405 42.9165 57.284 42.4375 56.0781 42.4375H28.7969ZM30.3125 28.7969C30.3125 27.591 30.7915 26.4345 31.6442 25.5817C32.497 24.729 33.6535 24.25 34.8594 24.25H68.2031C69.409 24.25 70.5655 24.729 71.4182 25.5817C72.271 26.4345 72.75 27.591 72.75 28.7969C72.75 30.0028 72.271 31.1593 71.4182 32.012C70.5655 32.8647 69.409 33.3437 68.2031 33.3438H34.8594C33.6535 33.3437 32.497 32.8647 31.6442 32.012C30.7915 31.1593 30.3125 30.0028 30.3125 28.7969ZM40.9219 60.625C39.716 60.625 38.5595 61.104 37.7067 61.9568C36.854 62.8095 36.375 63.966 36.375 65.1719C36.375 66.3778 36.854 67.5343 37.7067 68.387C38.5595 69.2397 39.716 69.7188 40.9219 69.7188H68.2031C69.409 69.7188 70.5655 69.2397 71.4182 68.387C72.271 67.5343 72.75 66.3778 72.75 65.1719C72.75 63.966 72.271 62.8095 71.4182 61.9568C70.5655 61.104 69.409 60.625 68.2031 60.625H40.9219Z" fill="#625452"/>
<path d="M0 10.6094C0 4.753 4.753 0 10.6094 0H86.3906C92.247 0 97 4.753 97 10.6094V86.3906C97 89.2044 95.8822 91.9029 93.8926 93.8926C91.9029 95.8822 89.2044 97 86.3906 97H10.6094C7.79559 97 5.09706 95.8822 3.10741 93.8926C1.11777 91.9029 0 89.2044 0 86.3906V10.6094ZM10.6094 9.09375C10.2074 9.09375 9.8219 9.25343 9.53767 9.53767C9.25343 9.8219 9.09375 10.2074 9.09375 10.6094V86.3906C9.09375 87.2272 9.77275 87.9062 10.6094 87.9062H86.3906C86.7926 87.9062 87.1781 87.7466 87.4623 87.4623C87.7466 87.1781 87.9062 86.7926 87.9062 86.3906V10.6094C87.9062 10.2074 87.7466 9.8219 87.4623 9.53767C87.1781 9.25343 86.7926 9.09375 86.3906 9.09375H10.6094Z" fill="#625452"/>
</svg>
