<svg width="53" height="53" viewBox="0 0 53 53" fill="none" xmlns="http://www.w3.org/2000/svg">
<path d="M17.5194 30.6222H10.5411C9.82987 27.9201 9.82987 25.0799 10.5411 22.3778H17.5194C17.341 23.7449 17.2426 25.1214 17.225 26.5C17.2426 27.8786 17.341 29.2551 17.5194 30.6222ZM12.2489 18.2556H18.2556C18.9411 15.7117 19.9089 13.2526 21.1411 10.9239C17.385 12.2068 14.2242 14.8129 12.2489 18.2556ZM40.7511 18.2556C38.7582 14.8162 35.5899 12.2125 31.8294 10.9239C33.0759 13.2426 34.035 15.7047 34.6856 18.2556M26.5 42.9006C28.2497 40.4143 29.5823 37.6595 30.4456 34.7444H22.5544C23.4177 37.6595 24.7503 40.4143 26.5 42.9006ZM26.5 10.07C24.7475 12.5652 23.4147 15.3302 22.5544 18.2556H30.4456C29.5853 15.3302 28.2525 12.5652 26.5 10.07ZM12.2489 34.7444C14.2346 38.1784 17.3916 40.7814 21.1411 42.0761C19.9089 39.7474 18.9411 37.2883 18.2556 34.7444M53 5.88889V47.1111C53 48.6729 52.3796 50.1708 51.2752 51.2752C50.1708 52.3796 48.6729 53 47.1111 53H5.88889C4.32706 53 2.8292 52.3796 1.72482 51.2752C0.620434 50.1708 0 48.6729 0 47.1111V5.88889C0 4.32706 0.620434 2.8292 1.72482 1.72482C2.8292 0.620434 4.32706 0 5.88889 0H47.1111C48.6729 0 50.1708 0.620434 51.2752 1.72482C52.3796 2.8292 53 4.32706 53 5.88889ZM47.1111 26.5C47.1111 22.4235 45.9023 18.4386 43.6375 15.0491C41.3727 11.6596 38.1537 9.01782 34.3875 7.45782C30.6213 5.89781 26.4771 5.48964 22.479 6.28493C18.4808 7.08021 14.8083 9.04323 11.9257 11.9257C9.04323 14.8083 7.08021 18.4808 6.28493 22.479C5.48964 26.4771 5.89781 30.6213 7.45782 34.3875C9.01782 38.1537 11.6596 41.3727 15.0491 43.6375C18.4386 45.9023 22.4235 47.1111 26.5 47.1111C31.9664 47.1111 37.2089 44.9396 41.0743 41.0743C44.9396 37.2089 47.1111 31.9664 47.1111 26.5ZM35.775 26.5C35.7574 27.8786 35.659 29.2551 35.4806 30.6222H42.4589C43.1701 27.9201 43.1701 25.0799 42.4589 22.3778H35.4806C35.659 23.7449 35.7574 25.1214 35.775 26.5ZM31.8294 42.0761C35.5872 40.7828 38.7541 38.1804 40.7511 34.7444H34.6856C34.035 37.2953 33.0759 39.7574 31.8294 42.0761ZM21.6711 22.3778C21.2311 25.1083 21.2311 27.8917 21.6711 30.6222H31.3289C31.5333 29.2574 31.6415 27.88 31.6528 26.5C31.6415 25.12 31.5333 23.7426 31.3289 22.3778H21.6711Z" fill="#625452"/>
</svg>
