<svg width="110" height="104" viewBox="0 0 110 104" fill="none" xmlns="http://www.w3.org/2000/svg">
<path d="M11 104C7.975 104 5.38633 102.929 3.234 100.787C1.08167 98.6449 0.00366667 96.0668 0 93.0526V32.8421C0 29.8316 1.078 27.2553 3.234 25.1133C5.39 22.9712 7.97867 21.8984 11 21.8947H33V10.9474C33 7.93684 34.078 5.36056 36.234 3.21853C38.39 1.07649 40.9787 0.00364912 44 0H66C69.025 0 71.6155 1.07284 73.7715 3.21853C75.9275 5.36421 77.0037 7.94049 77 10.9474V21.8947H99C102.025 21.8947 104.615 22.9676 106.771 25.1133C108.927 27.2589 110.004 29.8352 110 32.8421V93.0526C110 96.0632 108.924 98.6413 106.771 100.787C104.619 102.933 102.029 104.004 99 104H11ZM44 21.8947H66V10.9474H44V21.8947Z" fill="#625452"/>
</svg>
